<mxfile host="app.diagrams.net" modified="2021-04-17T04:09:59.899Z" agent="5.0 (Windows NT 10.0; Win64; x64) AppleWebKit/537.36 (KHTML, like Gecko) Chrome/90.0.4430.72 Safari/537.36" etag="dYVCQ0Ezt4wIiDyBaYL7" version="14.6.1" type="github">
  <diagram id="QlOx56Iq2J5uWR94hSFX" name="Page-1">
    <mxGraphModel dx="1038" dy="548" grid="1" gridSize="10" guides="1" tooltips="1" connect="1" arrows="1" fold="1" page="1" pageScale="1" pageWidth="827" pageHeight="1169" math="0" shadow="0">
      <root>
        <mxCell id="0" />
        <mxCell id="1" parent="0" />
        <mxCell id="7xHCTY2cXsK3lWGNMIrf-3" value="" style="edgeStyle=orthogonalEdgeStyle;rounded=0;orthogonalLoop=1;jettySize=auto;html=1;" edge="1" parent="1" source="7xHCTY2cXsK3lWGNMIrf-1" target="7xHCTY2cXsK3lWGNMIrf-2">
          <mxGeometry relative="1" as="geometry" />
        </mxCell>
        <mxCell id="7xHCTY2cXsK3lWGNMIrf-1" value="用户在&quot;我的&quot;界面点击头像或昵称" style="rounded=1;whiteSpace=wrap;html=1;" vertex="1" parent="1">
          <mxGeometry x="180" y="80" width="120" height="60" as="geometry" />
        </mxCell>
        <mxCell id="7xHCTY2cXsK3lWGNMIrf-5" value="" style="edgeStyle=orthogonalEdgeStyle;rounded=0;orthogonalLoop=1;jettySize=auto;html=1;" edge="1" parent="1" source="7xHCTY2cXsK3lWGNMIrf-2" target="7xHCTY2cXsK3lWGNMIrf-4">
          <mxGeometry relative="1" as="geometry" />
        </mxCell>
        <mxCell id="7xHCTY2cXsK3lWGNMIrf-7" value="" style="edgeStyle=orthogonalEdgeStyle;rounded=0;orthogonalLoop=1;jettySize=auto;html=1;" edge="1" parent="1" source="7xHCTY2cXsK3lWGNMIrf-2" target="7xHCTY2cXsK3lWGNMIrf-6">
          <mxGeometry relative="1" as="geometry" />
        </mxCell>
        <mxCell id="7xHCTY2cXsK3lWGNMIrf-2" value="进入个人信息界面" style="whiteSpace=wrap;html=1;rounded=1;" vertex="1" parent="1">
          <mxGeometry x="180" y="190" width="120" height="60" as="geometry" />
        </mxCell>
        <mxCell id="7xHCTY2cXsK3lWGNMIrf-13" value="" style="edgeStyle=orthogonalEdgeStyle;rounded=0;orthogonalLoop=1;jettySize=auto;html=1;entryX=0;entryY=0.5;entryDx=0;entryDy=0;" edge="1" parent="1" source="7xHCTY2cXsK3lWGNMIrf-4" target="7xHCTY2cXsK3lWGNMIrf-12">
          <mxGeometry relative="1" as="geometry" />
        </mxCell>
        <mxCell id="7xHCTY2cXsK3lWGNMIrf-4" value="修改非头像的个人信息" style="whiteSpace=wrap;html=1;rounded=1;" vertex="1" parent="1">
          <mxGeometry x="180" y="300" width="120" height="60" as="geometry" />
        </mxCell>
        <mxCell id="7xHCTY2cXsK3lWGNMIrf-9" value="" style="edgeStyle=orthogonalEdgeStyle;rounded=0;orthogonalLoop=1;jettySize=auto;html=1;" edge="1" parent="1" source="7xHCTY2cXsK3lWGNMIrf-6" target="7xHCTY2cXsK3lWGNMIrf-8">
          <mxGeometry relative="1" as="geometry" />
        </mxCell>
        <mxCell id="7xHCTY2cXsK3lWGNMIrf-6" value="修改头像" style="whiteSpace=wrap;html=1;rounded=1;" vertex="1" parent="1">
          <mxGeometry x="380" y="190" width="120" height="60" as="geometry" />
        </mxCell>
        <mxCell id="7xHCTY2cXsK3lWGNMIrf-11" value="" style="edgeStyle=orthogonalEdgeStyle;rounded=0;orthogonalLoop=1;jettySize=auto;html=1;" edge="1" parent="1" source="7xHCTY2cXsK3lWGNMIrf-8" target="7xHCTY2cXsK3lWGNMIrf-10">
          <mxGeometry relative="1" as="geometry" />
        </mxCell>
        <mxCell id="7xHCTY2cXsK3lWGNMIrf-8" value="调用系统相册" style="whiteSpace=wrap;html=1;rounded=1;" vertex="1" parent="1">
          <mxGeometry x="580" y="190" width="120" height="60" as="geometry" />
        </mxCell>
        <mxCell id="7xHCTY2cXsK3lWGNMIrf-14" style="edgeStyle=orthogonalEdgeStyle;rounded=0;orthogonalLoop=1;jettySize=auto;html=1;exitX=0;exitY=0.5;exitDx=0;exitDy=0;entryX=1;entryY=0.5;entryDx=0;entryDy=0;" edge="1" parent="1" source="7xHCTY2cXsK3lWGNMIrf-10" target="7xHCTY2cXsK3lWGNMIrf-12">
          <mxGeometry relative="1" as="geometry" />
        </mxCell>
        <mxCell id="7xHCTY2cXsK3lWGNMIrf-10" value="选择图片并确认" style="whiteSpace=wrap;html=1;rounded=1;" vertex="1" parent="1">
          <mxGeometry x="580" y="300" width="120" height="60" as="geometry" />
        </mxCell>
        <mxCell id="7xHCTY2cXsK3lWGNMIrf-16" value="" style="edgeStyle=orthogonalEdgeStyle;rounded=0;orthogonalLoop=1;jettySize=auto;html=1;" edge="1" parent="1" source="7xHCTY2cXsK3lWGNMIrf-12" target="7xHCTY2cXsK3lWGNMIrf-15">
          <mxGeometry relative="1" as="geometry" />
        </mxCell>
        <mxCell id="7xHCTY2cXsK3lWGNMIrf-12" value="将信息传输至服务器" style="whiteSpace=wrap;html=1;rounded=1;" vertex="1" parent="1">
          <mxGeometry x="380" y="370" width="120" height="60" as="geometry" />
        </mxCell>
        <mxCell id="7xHCTY2cXsK3lWGNMIrf-15" value="从服务器获取最新信息，并更新界面" style="whiteSpace=wrap;html=1;rounded=1;" vertex="1" parent="1">
          <mxGeometry x="380" y="470" width="120" height="60" as="geometry" />
        </mxCell>
      </root>
    </mxGraphModel>
  </diagram>
</mxfile>
